<svg height="1022" width="720" xmlns="http://www.w3.org/2000/svg">
<rect height="1022" fill="#555" width="720"></rect>
<text fill="#7f7" font-family="Courier New" font-size="12" xml:space="preserve">
<tspan x="10" y="26">33 megabytes installed</tspan>
<tspan x="10" y="42"></tspan>
<tspan x="10" y="58">node_modules</tspan>
<tspan x="10" y="74">├─┬ less@1.7.5 </tspan>
<tspan x="10" y="90">│ ├─┬ clean-css@2.2.23 </tspan>
<tspan x="10" y="106">│ │ └── commander@2.2.0 </tspan>
<tspan x="10" y="122">│ ├─┬ graceful-fs@3.0.11 </tspan>
<tspan x="10" y="138">│ │ └── natives@1.1.0 </tspan>
<tspan x="10" y="154">│ ├── mime@1.2.11 </tspan>
<tspan x="10" y="170">│ └─┬ request@2.40.0 </tspan>
<tspan x="10" y="186">│   ├── aws-sign2@0.5.0 </tspan>
<tspan x="10" y="202">│   ├── forever-agent@0.5.2 </tspan>
<tspan x="10" y="218">│   ├─┬ form-data@0.1.4 </tspan>
<tspan x="10" y="234">│   │ ├── async@0.9.2 </tspan>
<tspan x="10" y="250">│   │ └─┬ combined-stream@0.0.7 </tspan>
<tspan x="10" y="266">│   │   └── delayed-stream@0.0.5 </tspan>
<tspan x="10" y="282">│   ├─┬ hawk@1.1.1 </tspan>
<tspan x="10" y="298">│   │ ├── boom@0.4.2 </tspan>
<tspan x="10" y="314">│   │ ├── cryptiles@0.2.2 </tspan>
<tspan x="10" y="330">│   │ ├── hoek@0.9.1 </tspan>
<tspan x="10" y="346">│   │ └── sntp@0.2.4 </tspan>
<tspan x="10" y="362">│   ├─┬ http-signature@0.10.1 </tspan>
<tspan x="10" y="378">│   │ ├── asn1@0.1.11 </tspan>
<tspan x="10" y="394">│   │ ├── assert-plus@0.1.5 </tspan>
<tspan x="10" y="410">│   │ └── ctype@0.5.3 </tspan>
<tspan x="10" y="426">│   ├── json-stringify-safe@5.0.1 </tspan>
<tspan x="10" y="442">│   ├── mime-types@1.0.2 </tspan>
<tspan x="10" y="458">│   ├── node-uuid@1.4.8 </tspan>
<tspan x="10" y="474">│   ├── oauth-sign@0.3.0 </tspan>
<tspan x="10" y="490">│   ├── qs@1.0.2 </tspan>
<tspan x="10" y="506">│   ├── stringstream@0.0.5 </tspan>
<tspan x="10" y="522">│   ├─┬ tough-cookie@2.3.2 </tspan>
<tspan x="10" y="538">│   │ └── punycode@1.4.1 </tspan>
<tspan x="10" y="554">│   └── tunnel-agent@0.4.3 </tspan>
<tspan x="10" y="570">├─┬ styledocco@0.6.6 </tspan>
<tspan x="10" y="586">│ ├── async@0.1.22 </tspan>
<tspan x="10" y="602">│ ├── clean-css@0.4.2 </tspan>
<tspan x="10" y="618">│ ├── findit@1.1.1 </tspan>
<tspan x="10" y="634">│ ├─┬ jade@0.23.0 </tspan>
<tspan x="10" y="650">│ │ ├── commander@0.5.2 </tspan>
<tspan x="10" y="666">│ │ └── mkdirp@0.3.0 </tspan>
<tspan x="10" y="682">│ ├── marked@0.2.10 </tspan>
<tspan x="10" y="698">│ ├─┬ mkdirp@0.5.1 </tspan>
<tspan x="10" y="714">│ │ └── minimist@0.0.8 </tspan>
<tspan x="10" y="730">│ ├─┬ optimist@0.3.7 </tspan>
<tspan x="10" y="746">│ │ └── wordwrap@0.0.3 </tspan>
<tspan x="10" y="762">│ └── uglify-js@1.2.6 </tspan>
<tspan x="10" y="778">├─┬ stylus@0.49.3 </tspan>
<tspan x="10" y="794">│ ├── css-parse@1.7.0 </tspan>
<tspan x="10" y="810">│ ├─┬ debug@2.0.0 </tspan>
<tspan x="10" y="826">│ │ └── ms@0.6.2 </tspan>
<tspan x="10" y="842">│ ├─┬ glob@3.2.3 </tspan>
<tspan x="10" y="858">│ │ ├── graceful-fs@2.0.3 </tspan>
<tspan x="10" y="874">│ │ ├── inherits@2.0.3 </tspan>
<tspan x="10" y="890">│ │ └─┬ minimatch@0.2.14 </tspan>
<tspan x="10" y="906">│ │   ├── lru-cache@2.7.3 </tspan>
<tspan x="10" y="922">│ │   └── sigmund@1.0.1 </tspan>
<tspan x="10" y="938">│ ├── mkdirp@0.3.5 </tspan>
<tspan x="10" y="954">│ ├── sax@0.5.8 </tspan>
<tspan x="10" y="970">│ └─┬ source-map@0.1.43 </tspan>
<tspan x="10" y="986">│   └── amdefine@1.0.1 </tspan>
<tspan x="10" y="1002">└── wrench@1.5.9</tspan>
</text>
</svg>
